<?xml version="1.0" standalone="no"?>
<!DOCTYPE svg PUBLIC "-//W3C//DTD SVG 20010904//EN"
 "http://www.w3.org/TR/2001/REC-SVG-20010904/DTD/svg10.dtd">
<svg version="1.0" xmlns="http://www.w3.org/2000/svg"
 width="600.000000pt" height="600.000000pt" viewBox="0 0 600.000000 600.000000"
 preserveAspectRatio="xMidYMid meet">

<g transform="translate(0.000000,600.000000) scale(0.100000,-0.100000)"
fill="#000000" stroke="none">
<path d="M2635 4485 l0 -375 -377 0 -378 0 0 -381 c0 -255 3 -378 10 -374 6 4
8 11 4 16 -3 5 -1 8 3 7 5 -2 50 29 99 68 49 39 107 84 129 99 22 15 39 31 37
37 -1 5 2 7 7 4 4 -3 46 17 92 44 85 51 303 153 352 165 14 4 29 15 32 25 5
17 93 50 173 66 33 7 56 35 64 79 5 34 106 131 171 167 60 32 66 33 172 33 92
0 117 -3 153 -21 l42 -21 0 368 0 369 -392 0 -393 0 0 -375z"/>
<path d="M2193 4724 c-53 -26 -217 -180 -208 -194 3 -4 -32 -35 -78 -68 -148
-108 -286 -262 -354 -397 -128 -250 -122 -552 16 -841 27 -56 67 -129 90 -162
22 -34 41 -66 41 -73 0 -8 5 -7 18 2 15 13 16 12 3 -3 -7 -10 -16 -16 -20 -13
-4 2 -16 -10 -26 -27 -13 -22 -14 -29 -4 -24 8 4 0 -5 -18 -21 -17 -15 -33
-35 -35 -43 -2 -8 -9 -21 -16 -28 -7 -8 -10 -17 -7 -22 3 -5 1 -10 -5 -12 -14
-4 -22 -48 -9 -48 6 0 7 -5 4 -11 -4 -6 -13 -8 -19 -6 -18 7 -35 -44 -23 -74
l9 -24 9 23 c5 13 7 28 4 32 -3 5 4 14 15 20 17 9 20 17 15 43 -5 24 -4 28 4
17 9 -12 11 -11 11 8 0 12 6 22 13 22 8 0 26 25 42 56 16 31 34 58 41 61 7 2
15 16 19 31 7 25 8 25 15 7 13 -32 154 -179 238 -246 120 -97 259 -184 404
-253 200 -95 190 -94 231 -38 l35 46 -98 42 c-121 51 -229 109 -342 185 -174
117 -399 329 -397 374 0 11 3 14 6 8 6 -17 33 9 33 31 0 9 7 16 15 16 10 0 15
10 15 28 0 36 9 45 28 30 11 -10 16 -9 23 5 6 9 15 17 22 17 7 0 33 20 59 44
40 37 45 46 34 56 -8 6 -12 19 -9 27 5 14 1 13 -25 -3 -18 -10 -32 -22 -32
-27 0 -4 5 -5 12 -1 7 4 8 3 4 -4 -4 -6 -13 -9 -21 -6 -9 4 -18 -1 -21 -11 -8
-20 -93 -105 -105 -105 -5 0 -9 -9 -9 -19 0 -11 -4 -23 -10 -26 -5 -3 -10 -1
-10 6 0 7 -8 5 -20 -6 -21 -19 -28 -41 -9 -30 6 4 5 -2 -3 -14 -17 -27 -28
-27 -26 2 1 12 -21 57 -49 99 -54 82 -102 189 -129 284 -25 90 -30 293 -9 395
44 224 174 426 365 571 43 33 71 47 84 44 18 -5 232 17 284 29 37 9 62 41 62
80 0 62 -54 143 -105 159 -13 4 -41 -4 -72 -20z m-213 -1498 c0 -11 -19 -15
-25 -6 -3 5 1 10 9 10 9 0 16 -2 16 -4z m-186 -197 c-8 -14 -24 -10 -24 6 0 9
6 12 15 9 8 -4 12 -10 9 -15z"/>
<path d="M3790 4743 c-28 -10 -62 -48 -87 -96 -21 -43 -23 -53 -13 -83 8 -24
22 -40 43 -50 35 -15 281 -46 303 -37 36 14 237 -169 309 -281 52 -82 109
-208 130 -286 41 -158 28 -380 -31 -537 -96 -256 -350 -533 -667 -730 -94 -58
-262 -141 -329 -162 l-38 -13 32 -46 c17 -26 32 -48 33 -50 5 -6 157 59 253
107 458 230 785 626 857 1037 63 363 -82 683 -427 942 -48 35 -85 68 -83 72 6
10 -164 174 -200 192 -41 21 -67 27 -85 21z"/>
<path d="M3489 4065 c196 -184 141 -507 -107 -623 -50 -24 -69 -27 -157 -27
-89 0 -106 3 -156 27 -30 15 -73 43 -94 61 l-39 34 -80 -23 c-44 -13 -92 -20
-107 -17 -32 6 -168 -46 -314 -121 l-100 -51 148 -3 147 -3 0 -374 0 -375 395
0 395 0 0 375 0 375 380 0 380 0 0 395 0 395 -370 0 -369 0 48 -45z"/>
<path d="M2860 3770 c-8 -5 -18 -6 -24 -3 -5 3 -6 2 -3 -4 9 -14 -37 -33 -64
-26 -17 5 -20 3 -14 -7 5 -9 4 -11 -3 -6 -16 9 -83 -4 -76 -15 3 -5 0 -9 -6
-9 -6 0 -8 -4 -5 -10 7 -11 -58 -40 -90 -40 -34 0 -55 -10 -55 -27 0 -10 -7
-13 -22 -8 -18 5 -20 4 -8 -4 17 -12 16 -12 -43 -16 -36 -3 -47 -14 -19 -22
12 -3 19 -9 16 -14 -3 -5 -13 -5 -24 1 -48 26 -68 -7 -30 -48 24 -26 35 -28
26 -7 -6 16 9 21 18 6 4 -5 16 -4 30 2 16 8 22 17 18 32 -5 18 -4 18 12 6 13
-11 22 -11 41 -3 36 17 31 32 -11 32 -19 0 -33 4 -30 9 3 5 26 8 50 8 25 0 43
-4 40 -9 -10 -15 24 -20 48 -7 27 16 70 19 79 6 4 -5 14 -5 25 1 11 5 46 15
78 22 64 13 106 29 106 40 0 4 -9 15 -20 25 -11 10 -20 23 -20 29 0 6 5 4 11
-4 8 -11 9 -5 5 24 -6 46 -16 58 -36 46z m-230 -174 c0 -3 -4 -8 -10 -11 -5
-3 -10 -1 -10 4 0 6 5 11 10 11 6 0 10 -2 10 -4z"/>
<path d="M2320 3530 c-21 -7 -21 -8 -5 -9 11 0 27 4 35 9 18 11 5 11 -30 0z"/>
<path d="M2260 3503 c0 -9 -62 -47 -72 -45 -5 1 -8 -2 -8 -8 0 -5 -7 -10 -16
-10 -8 0 -13 -4 -10 -9 3 -5 -2 -15 -11 -22 -14 -12 -16 -12 -9 1 4 8 -1 4
-12 -10 -12 -14 -24 -21 -28 -17 -14 13 -34 -16 -34 -49 0 -27 4 -34 19 -34
11 0 23 5 27 12 4 6 3 8 -3 5 -6 -4 -15 5 -21 21 -9 25 -7 27 19 28 29 1 40
-11 17 -18 -9 -3 -9 -6 -1 -11 6 -4 19 1 29 10 10 10 20 18 23 18 19 1 89 50
84 58 -4 6 0 8 10 4 10 -3 17 -2 17 3 0 6 3 9 8 8 12 -4 72 24 72 33 0 5 -9 9
-19 9 -11 0 -26 6 -33 13 -15 14 -48 21 -48 10z"/>
<path d="M1516 2644 c-4 -9 -4 -19 -1 -22 3 -3 5 0 5 7 0 7 5 9 10 6 6 -3 10
-2 10 4 0 18 -18 21 -24 5z"/>
<path d="M1531 2604 c0 -11 3 -14 6 -6 3 7 2 16 -1 19 -3 4 -6 -2 -5 -13z"/>
<path d="M1500 2557 c0 -9 -4 -17 -9 -17 -15 0 -51 -153 -50 -211 l2 -54 7 45
c4 24 5 54 3 65 -4 15 -2 17 5 7 7 -10 11 -4 17 25 5 21 7 46 6 57 -2 10 2 16
7 12 5 -3 10 6 10 20 0 15 6 30 13 35 11 6 11 11 1 21 -9 9 -12 9 -12 -5z"/>
<path d="M2664 2396 l-51 -72 84 -43 c46 -24 111 -63 144 -88 l59 -45 0 -155
c0 -164 5 -188 46 -203 24 -9 25 -13 18 -57 -38 -263 -235 -465 -519 -534 -68
-17 -120 -22 -215 -22 -144 1 -234 18 -357 67 -46 18 -83 32 -83 30 0 -2 31
-20 70 -39 263 -132 630 -129 868 7 172 98 292 261 338 460 16 68 21 79 46 89
16 6 33 20 38 30 6 10 10 87 10 172 l0 155 53 40 c28 22 91 61 140 87 48 26
87 49 87 52 0 4 -73 111 -96 142 -2 2 -17 -7 -33 -18 -48 -34 -150 -78 -214
-91 -97 -20 -248 19 -346 89 -16 12 -31 21 -33 21 -1 -1 -26 -34 -54 -74z"/>
<path d="M1420 2250 c0 -11 5 -20 10 -20 6 0 10 9 10 20 0 11 -4 20 -10 20 -5
0 -10 -9 -10 -20z"/>
<path d="M1421 2210 c-12 -73 -12 -75 -1 -64 6 6 10 27 7 45 -2 19 -5 27 -6
19z"/>
<path d="M1405 2091 c-3 -5 -1 -12 5 -16 5 -3 10 1 10 9 0 18 -6 21 -15 7z"/>
<path d="M1405 2027 c-4 -10 -5 -21 -1 -24 10 -10 18 4 13 24 -4 17 -4 17 -12
0z"/>
<path d="M1412 1940 c0 -14 2 -19 5 -12 2 6 2 18 0 25 -3 6 -5 1 -5 -13z"/>
</g>
</svg>
